<svg width="148" height="162" viewBox="0 0 148 162" fill="none" xmlns="http://www.w3.org/2000/svg">
<path d="M66.9178 38.7378C60.4824 27.0022 43.0941 36.5124 49.5385 48.2672C55.9829 60.0219 73.3511 50.5158 66.9178 38.7378Z" fill="#8B75FF"/>
<path opacity="0.1" d="M66.9178 38.7378C60.4824 27.0022 43.0941 36.5124 49.5385 48.2672C55.9829 60.0219 73.3511 50.5158 66.9178 38.7378Z" fill="black"/>
<path d="M67.5076 39.8413C61.3771 28.6578 43.9837 38.1691 50.1283 49.3706C56.2729 60.5722 73.6471 51.0439 67.5076 39.8413Z" fill="#8B75FF"/>
<path opacity="0.1" d="M60.9179 52.2995C57.5992 53.3434 53.765 52.4986 51.6057 48.5599C46.51 39.2657 60.941 31.3716 66.0287 40.6517L66.1236 40.8371C61.1593 32.1981 47.5264 39.7326 52.383 48.5925C53.1435 50.1146 54.4157 51.3203 55.9763 51.9981C57.5369 52.6759 59.2864 52.7827 60.9179 52.2995Z" fill="black"/>
<g opacity="0.1">
<path opacity="0.1" d="M64.2314 41.647C64.1837 41.5725 64.1084 41.5201 64.022 41.501C63.9357 41.482 63.8453 41.498 63.7707 41.5455L63.3062 41.8433C62.7656 41.1236 62.0214 40.5827 61.17 40.2905C61.1123 40.2612 61.0482 40.2469 60.9836 40.2489C60.9189 40.2509 60.8558 40.2691 60.8 40.3019C60.7617 40.3274 60.7288 40.3602 60.7032 40.3985C60.6776 40.4368 60.6598 40.4797 60.6509 40.5248C60.6419 40.57 60.642 40.6165 60.651 40.6616C60.6601 40.7067 60.678 40.7497 60.7036 40.7879C60.7259 40.828 60.7566 40.8628 60.7937 40.8898C60.8308 40.9167 60.8734 40.9352 60.9185 40.9439C61.6496 41.1753 62.2982 41.6131 62.7863 42.2045L59.534 44.2836C58.0369 42.7546 56.8976 42.4329 55.755 43.1656C54.5208 43.9377 54.3154 45.5517 55.1935 47.0268L54.2877 47.6072C54.2512 47.6307 54.2196 47.6612 54.1948 47.6969C54.17 47.7327 54.1525 47.7729 54.1432 47.8154C54.134 47.8579 54.1332 47.9018 54.141 47.9446C54.1487 47.9874 54.1648 48.0283 54.1883 48.0649C54.2118 48.1015 54.2423 48.1331 54.2781 48.1579C54.3138 48.1826 54.3541 48.2002 54.3966 48.2094C54.4391 48.2186 54.483 48.2194 54.5258 48.2117C54.5686 48.2039 54.6094 48.1879 54.646 48.1643L55.576 47.5739C56.2714 48.5001 57.256 49.1676 58.3738 49.4709C58.4264 49.4916 58.4831 49.4998 58.5394 49.4949C58.5957 49.4899 58.6501 49.472 58.6983 49.4424C58.7733 49.3912 58.8259 49.3133 58.8451 49.2246C58.8643 49.1359 58.8488 49.0431 58.8018 48.9655C58.779 48.9258 58.7481 48.8913 58.7111 48.8644C58.6741 48.8375 58.6317 48.8188 58.5869 48.8094C57.5944 48.5792 56.7102 48.0169 56.0807 47.2157L59.3935 45.0982C60.8957 46.6 61.9957 46.9087 63.1573 46.1669C64.319 45.425 64.5738 43.8221 63.7038 42.3873L64.1451 42.1047C64.2152 42.0538 64.2632 41.9781 64.2792 41.893C64.2953 41.8079 64.2782 41.7199 64.2314 41.647ZM59.9739 44.7248L63.1476 42.6982C63.843 43.8377 63.6443 45.0153 62.8081 45.5502C61.9718 46.0851 61.2934 45.9959 59.9739 44.7248ZM58.9144 44.6702L55.7285 46.7149C55.0099 45.5381 55.2015 44.3515 56.0841 43.7863C56.8881 43.2736 57.6362 43.3698 58.9396 44.6651L58.9144 44.6702Z" fill="black"/>
</g>
<path d="M20.4099 63.4798C10.3968 64.4735 11.8548 79.3056 21.883 78.3089C31.9112 77.3123 30.4381 62.4832 20.4099 63.4798Z" fill="#8B75FF"/>
<path opacity="0.1" d="M20.4099 63.4798C10.3968 64.4735 11.8548 79.3056 21.883 78.3089C31.9112 77.3123 30.4381 62.4832 20.4099 63.4798Z" fill="black"/>
<path d="M21.3504 63.3854C11.8051 64.3323 13.2631 79.1644 22.8236 78.2145C32.3841 77.2646 30.9059 62.4365 21.3504 63.3854Z" fill="#8B75FF"/>
<path opacity="0.1" d="M28.0251 71.6128C27.9394 72.9994 27.3494 74.3066 26.3664 75.2882C25.3834 76.2697 24.0753 76.8578 22.6886 76.9414C14.758 77.7318 13.559 65.4166 21.4644 64.6312C21.5148 64.6211 21.5652 64.611 21.6156 64.6009C14.177 65.4917 15.3735 77.1417 22.9352 76.3939C24.2099 76.3212 25.4183 75.8024 26.3489 74.9283C27.2795 74.0542 27.8729 72.8805 28.0251 71.6128Z" fill="black"/>
<g opacity="0.1">
<path opacity="0.1" d="M21.6303 66.1866C21.5654 66.1982 21.5076 66.2348 21.4694 66.2885C21.4311 66.3423 21.4155 66.4089 21.4259 66.474L21.5068 66.8772C20.8502 67.0416 20.2574 67.3979 19.804 67.9006C19.7658 67.9308 19.7359 67.9703 19.7174 68.0153C19.6989 68.0604 19.6924 68.1094 19.6984 68.1578C19.7046 68.1921 19.7176 68.2248 19.7365 68.254C19.7555 68.2833 19.7802 68.3084 19.809 68.328C19.8378 68.3476 19.8703 68.3612 19.9045 68.3681C19.9386 68.375 19.9738 68.3751 20.008 68.3682C20.0422 68.3646 20.0753 68.3541 20.1053 68.3373C20.1353 68.3204 20.1615 68.2976 20.1823 68.2703C20.5555 67.8285 21.0507 67.5066 21.606 67.3448L22.082 70.2113C20.5855 70.8001 20.0276 71.4941 20.1967 72.4929C20.378 73.5784 21.4137 74.1935 22.6998 74.0192L22.8345 74.8205C22.8479 74.8873 22.8874 74.946 22.9441 74.9838C23.0008 75.0216 23.0703 75.0352 23.1371 75.0218C23.2039 75.0084 23.2627 74.969 23.3004 74.9123C23.3382 74.8555 23.3519 74.7861 23.3385 74.7193L23.1765 73.913C24.0233 73.7078 24.7757 73.2223 25.3115 72.5353C25.3425 72.5062 25.3659 72.4699 25.3798 72.4297C25.3936 72.3895 25.3975 72.3465 25.391 72.3044C25.3776 72.2375 25.3392 72.1781 25.2835 72.1386C25.2278 72.0991 25.159 72.0824 25.0914 72.092C25.0572 72.0968 25.0242 72.1084 24.9945 72.1261C24.9647 72.1438 24.9388 72.1672 24.9181 72.1949C24.4655 72.8141 23.8156 73.2608 23.0754 73.4614L22.5893 70.5446C24.0434 69.9537 24.6054 69.2799 24.4312 68.2559C24.257 67.2319 23.2253 66.5845 21.9765 66.7619L21.8996 66.3789C21.8865 66.3192 21.8517 66.2664 21.802 66.2309C21.7522 66.1953 21.691 66.1795 21.6303 66.1866ZM22.5082 70.0366L22.0414 67.2416C23.0342 67.0947 23.7865 67.578 23.9141 68.3178C24.0417 69.0576 23.7739 69.4993 22.5082 70.0366ZM22.161 70.7354L22.6339 73.5606C21.6149 73.7075 20.8424 73.2283 20.7128 72.4522C20.5831 71.6761 20.8812 71.2545 22.165 70.7556L22.161 70.7354Z" fill="black"/>
</g>
<path d="M138.137 74.362C137.487 84.3592 122.656 83.4211 123.328 73.4038C124.001 63.3864 138.79 64.3487 138.137 74.362Z" fill="#8B75FF"/>
<path opacity="0.1" d="M138.137 74.362C137.487 84.3592 122.656 83.4211 123.328 73.4038C124.001 63.3864 138.79 64.3487 138.137 74.362Z" fill="black"/>
<path d="M138.199 73.4214C137.58 82.9509 122.79 82.0047 123.387 72.4481C123.985 62.8914 138.816 63.8819 138.199 73.4214Z" fill="#8B75FF"/>
<path opacity="0.1" d="M129.098 78.882C127.743 78.6043 126.536 77.839 125.707 76.7311C124.877 75.6231 124.483 74.2496 124.599 72.8705C124.951 64.936 137.274 65.502 136.898 73.4205L136.892 73.5737C137.073 66.1191 125.421 65.6332 125.083 73.1927C124.978 74.4616 125.323 75.7269 126.057 76.7671C126.791 77.8072 127.868 78.5559 129.098 78.882Z" fill="black"/>
<g opacity="0.1">
<path opacity="0.1" d="M135.366 73.3561C135.362 73.2904 135.333 73.2287 135.285 73.1838C135.237 73.1388 135.173 73.114 135.107 73.1144L134.695 73.1238C134.632 72.4525 134.365 71.8164 133.931 71.3008C133.906 71.2589 133.872 71.224 133.83 71.1993C133.788 71.1746 133.741 71.161 133.693 71.1599C133.623 71.1634 133.557 71.1943 133.509 71.2461C133.462 71.2978 133.436 71.3661 133.439 71.4363C133.438 71.4707 133.445 71.5049 133.458 71.5365C133.472 71.5681 133.492 71.5965 133.518 71.6197C133.896 72.0528 134.142 72.5861 134.224 73.1554L131.331 73.2121C130.965 71.6499 130.363 71.0002 129.351 71.0252C128.255 71.0512 127.499 71.9842 127.486 73.2765L126.682 73.2963C126.613 73.2984 126.548 73.3278 126.5 73.3781C126.453 73.4285 126.428 73.4956 126.43 73.5647C126.432 73.6338 126.461 73.6992 126.511 73.7466C126.562 73.794 126.629 73.8195 126.698 73.8175L127.512 73.8007C127.599 74.6628 127.97 75.4716 128.567 76.1002C128.592 76.1349 128.625 76.1628 128.664 76.1816C128.702 76.2003 128.745 76.2094 128.787 76.2079C128.855 76.2026 128.918 76.1725 128.964 76.1235C129.01 76.0745 129.037 76.01 129.038 75.9426C129.037 75.8736 129.008 75.8079 128.959 75.7592C128.399 75.2273 128.041 74.5169 127.948 73.75L130.891 73.6832C131.263 75.2232 131.851 75.8497 132.894 75.8237C133.937 75.7977 134.725 74.8898 134.737 73.6187L135.133 73.6073C135.196 73.6025 135.255 73.5739 135.299 73.5273C135.342 73.4808 135.366 73.4196 135.366 73.3561ZM131.445 73.6717L134.267 73.6291C134.269 74.6301 133.689 75.3181 132.94 75.3217C132.191 75.3253 131.794 74.9959 131.445 73.6717ZM130.83 73.2236L127.978 73.2721C127.972 72.2248 128.556 71.557 129.343 71.5352C130.131 71.5135 130.475 71.8952 130.805 73.2286L130.83 73.2236Z" fill="black"/>
</g>
<path d="M55.2773 106.21C48.3355 113.413 37.6474 103.134 44.6084 95.9219C51.5693 88.7101 62.2433 98.9969 55.2773 106.21Z" fill="#8B75FF"/>
<path opacity="0.1" d="M55.2773 106.21C48.3355 113.413 37.6474 103.134 44.6084 95.9219C51.5693 88.7101 62.2433 98.9969 55.2773 106.21Z" fill="black"/>
<path d="M55.928 105.534C49.3064 112.4 38.6284 102.119 45.259 95.2461C51.8896 88.3732 62.5585 98.661 55.928 105.534Z" fill="#8B75FF"/>
<path opacity="0.1" d="M45.4653 103.823C44.6107 102.735 44.1847 101.372 44.2678 99.9912C44.3508 98.6103 44.9373 97.3078 45.9161 96.3302C51.3096 90.5288 60.3219 98.8845 54.9354 104.695L54.8267 104.806C59.7799 99.2398 51.2115 91.3454 46.0708 96.8916C45.1729 97.7925 44.6203 98.9804 44.5096 100.248C44.399 101.515 44.7372 102.78 45.4653 103.823Z" fill="black"/>
<g opacity="0.1">
<path opacity="0.1" d="M53.8093 103.652C53.8493 103.602 53.8678 103.537 53.8608 103.473C53.8538 103.409 53.8218 103.35 53.7717 103.309L53.452 103.048C53.8332 102.492 54.0408 101.835 54.0483 101.161C54.0565 101.114 54.0522 101.065 54.0357 101.019C54.0192 100.974 53.9912 100.934 53.9543 100.902C53.9271 100.881 53.8959 100.866 53.8627 100.857C53.8294 100.848 53.7947 100.846 53.7605 100.85C53.7263 100.854 53.6934 100.865 53.6635 100.883C53.6337 100.9 53.6075 100.923 53.5865 100.95C53.5623 100.975 53.5442 101.005 53.5335 101.038C53.5229 101.071 53.52 101.106 53.5251 101.141C53.5342 101.714 53.376 102.278 53.0697 102.763L50.8224 100.944C51.5531 99.5182 51.5121 98.6352 50.7294 98.0007C49.9467 97.3663 48.6968 97.5386 47.8549 98.515L47.2285 98.0065C47.1771 97.9653 47.1115 97.9463 47.0461 97.9535C46.9807 97.9607 46.9209 97.9937 46.8797 98.045C46.8386 98.0964 46.8196 98.162 46.8268 98.2274C46.834 98.2928 46.8669 98.3527 46.9183 98.3938L47.5457 98.9074C47.0538 99.6198 46.8143 100.476 46.8652 101.34C46.8595 101.396 46.8719 101.451 46.9005 101.499C46.9291 101.546 46.9724 101.583 47.0238 101.604C47.0753 101.625 47.1321 101.629 47.1859 101.615C47.2396 101.601 47.2874 101.57 47.3219 101.526C47.3444 101.5 47.3614 101.47 47.3719 101.437C47.3825 101.405 47.3863 101.37 47.3833 101.336C47.3095 100.578 47.4994 99.8176 47.9209 99.1833L50.2055 101.031C49.495 102.453 49.535 103.305 50.3368 103.957C51.1387 104.608 52.3351 104.405 53.1539 103.443L53.4555 103.692C53.5077 103.734 53.5743 103.753 53.6406 103.745C53.7069 103.738 53.7676 103.705 53.8093 103.652ZM50.6181 101.363L52.8089 103.135C52.1654 103.899 51.2814 104.039 50.7025 103.558C50.1235 103.077 50.0324 102.597 50.6181 101.363ZM50.4159 100.617L48.1999 98.8232C48.8696 98.0334 49.7525 97.8876 50.3668 98.3881C50.9811 98.8886 51.0278 99.3825 50.4159 100.617Z" fill="black"/>
</g>
<path d="M45.1582 65.1474C54.7155 63.9203 59.903 77.0913 69.4592 75.8591C69.4105 73.667 69.3886 71.3996 69.3935 69.0569C62.131 68.3711 57.3088 59.6301 50.2173 58.3594C48.5749 60.4665 46.8891 62.7238 45.1582 65.1474Z" fill="#95A3AA"/>
<path d="M55.6719 65.0757C55.1083 66.2374 56.0181 68.1832 57.6814 69.5478C59.3447 70.9124 60.9938 70.8486 61.3456 69.5198C61.6973 68.1909 60.7745 66.2582 59.3301 65.0698C57.8856 63.8815 56.2405 63.8868 55.6719 65.0757Z" fill="#37474F"/>
<path d="M63.3086 70.6251C63.317 70.8432 63.3875 71.0543 63.5117 71.2336C63.636 71.413 63.8088 71.5532 64.01 71.6377C64.4658 71.8712 64.877 71.7781 64.9221 71.4545C64.9022 71.243 64.8247 71.041 64.6981 70.8705C64.5714 70.7 64.4004 70.5675 64.2036 70.4874C63.766 70.2659 63.3708 70.3086 63.3086 70.6251Z" fill="#37474F"/>
<path d="M52.2052 62.7206C52.0421 62.9788 52.2813 63.3607 52.7341 63.6053C53.1869 63.8499 53.6617 63.8646 53.8087 63.6044C53.9557 63.3442 53.7336 62.917 53.2989 62.6583C52.8642 62.3995 52.3724 62.4564 52.2052 62.7206Z" fill="#37474F"/>
<path d="M68.7381 68.9526C68.6735 71.3457 68.6289 73.6737 68.6044 75.9364C68.8847 75.9221 69.173 75.8956 69.4592 75.8591C69.4105 73.667 69.3886 71.3996 69.3935 69.0569C69.1706 69.0178 68.9549 68.9877 68.7381 68.9526Z" fill="#37474F"/>
<path d="M45.1593 65.1473C45.4415 65.0906 45.7338 65.0844 46.0151 65.0751C47.6695 62.7402 49.3008 60.5515 50.8556 58.4777C50.6459 58.4255 50.4321 58.3793 50.2144 58.3391C48.5759 60.4663 46.8902 62.7236 45.1593 65.1473Z" fill="#37474F"/>
<path d="M45.4868 64.6933C45.375 64.8416 45.2693 64.9939 45.1586 65.1472C54.7158 63.9201 59.9033 77.0911 69.4596 75.8589L69.4552 75.4456C60.0511 76.5214 54.8688 63.6639 45.4868 64.6933Z" fill="#37474F"/>
<path d="M50.2135 58.3391C50.1098 58.4753 50.005 58.6064 49.9063 58.7416C57.1349 59.9113 61.9905 68.8972 69.3889 69.4772L69.3896 69.0367C62.1272 68.3508 57.305 59.6098 50.2135 58.3391Z" fill="#37474F"/>
<path d="M66.8238 75.3922C67.414 75.4837 68.0112 75.5217 68.6082 75.5058L68.6215 74.5542C67.6407 74.5519 66.8637 74.8337 66.8238 75.3922Z" fill="#37474F"/>
<path d="M47.012 63.6692L46.3233 64.6253C46.9218 64.6112 47.5203 64.6543 48.1107 64.754C48.454 64.2709 47.9889 63.7037 47.012 63.6692Z" fill="#37474F"/>
<path d="M51.9516 59.2904C51.4963 59.1189 51.0302 58.9779 50.5562 58.8681L49.8946 59.7506C50.7213 59.8992 51.6204 59.7553 51.9516 59.2904Z" fill="#37474F"/>
<path d="M68.7044 70.396L68.7248 69.4011C68.244 69.329 67.7689 69.2229 67.3032 69.0836C67.2582 69.6431 67.8666 70.2969 68.7044 70.396Z" fill="#37474F"/>
<path d="M59.0896 65.5739C59.0159 65.5205 58.9413 65.5145 58.9252 65.5649L58.8669 65.7182C58.5498 65.4712 58.1837 65.2945 57.7929 65.1999C57.7325 65.1858 57.6962 65.1879 57.6821 65.2222C57.6778 65.2627 57.6853 65.3035 57.7038 65.3398C57.7222 65.3761 57.7508 65.4063 57.7861 65.4267C57.8155 65.4551 57.8521 65.4749 57.892 65.4841C58.2243 65.5524 58.5374 65.6937 58.8086 65.8977L58.4062 66.9746C57.5046 66.4007 57.0489 66.3245 56.8919 66.6915C56.7349 67.0585 57.1115 67.785 57.863 68.3943L57.7503 68.6948C57.7282 68.7412 57.7786 68.8359 57.8543 68.8994C57.9299 68.9628 58.0156 68.9718 58.0327 68.9264L58.1434 68.6159C58.5641 68.9554 59.0605 69.1884 59.5904 69.2952C59.6358 69.2861 59.6711 69.279 59.6862 69.276C59.6863 69.2336 59.6757 69.1919 59.6554 69.1548C59.6351 69.1176 59.6057 69.0862 59.5701 69.0634C59.5398 69.0336 59.5011 69.0139 59.4592 69.007C58.998 68.9317 58.5639 68.739 58.1987 68.4475L58.602 67.3494C59.4946 67.9042 59.915 67.9613 60.0437 67.5842C60.1725 67.2071 59.7889 66.4977 59.1332 65.9478L59.1885 65.8057C59.2036 65.724 59.1592 65.6333 59.0896 65.5739ZM58.6704 67.1417L59.0557 66.084C59.5752 66.5039 59.8538 67.0299 59.7582 67.3112C59.6627 67.5926 59.4349 67.6068 58.6704 67.1417ZM58.3358 67.1722L57.9354 68.233C57.3564 67.7516 57.0627 67.2286 57.1834 66.9423C57.3042 66.6559 57.5562 66.6839 58.3338 67.1621L58.3358 67.1722Z" fill="#455A64"/>
<path d="M102.685 59.7137C111.319 55.7152 114.65 65.8565 123.311 61.863C122.313 60.5333 121.566 59.0329 121.106 57.4354C115.351 57.2856 111.87 51.1222 104.852 54.2666L102.685 59.7137Z" fill="#95A3AA"/>
<path d="M110.898 56.7227C110.743 57.8024 111.742 59.1483 113.1 59.8559C114.459 60.5635 115.551 60.103 115.533 58.9166C115.47 58.2417 115.241 57.5929 114.867 57.0278C114.493 56.4626 113.985 55.9988 113.388 55.6774C112.19 55.0896 111.044 55.6449 110.898 56.7227Z" fill="#37474F"/>
<path d="M117.07 59.4416C117.11 59.6104 117.196 59.7646 117.319 59.8872C117.442 60.0097 117.596 60.0957 117.765 60.1356C118.132 60.2401 118.411 60.0897 118.376 59.8347C118.321 59.6739 118.228 59.529 118.104 59.413C117.98 59.2971 117.83 59.2135 117.666 59.17C117.313 59.0574 117.052 59.1674 117.07 59.4416Z" fill="#37474F"/>
<path d="M107.861 56.0163C107.803 56.2482 108.083 56.4385 108.479 56.4795C108.875 56.5205 109.222 56.3932 109.268 56.1533C109.314 55.9133 109.061 55.6706 108.675 55.6276C108.515 55.5981 108.351 55.6198 108.205 55.6896C108.059 55.7595 107.938 55.8738 107.861 56.0163Z" fill="#37474F"/>
<path d="M120.589 57.3924C121.011 59.0703 121.666 60.6806 122.535 62.1761C122.788 62.0781 123.049 61.968 123.308 61.8479C122.311 60.5181 121.563 59.0178 121.103 57.4203C120.93 57.4184 120.755 57.4064 120.589 57.3924Z" fill="#37474F"/>
<path d="M102.685 59.7136C102.949 59.5925 103.205 59.4834 103.459 59.3905L105.481 54.0039C105.271 54.0827 105.064 54.1716 104.852 54.2665L102.685 59.7136Z" fill="#37474F"/>
<path d="M102.821 59.3719L102.685 59.7137C111.319 55.7152 114.65 65.8565 123.311 61.863L123.144 61.6555C114.712 65.2778 111.375 55.4208 102.821 59.3719Z" fill="#37474F"/>
<path d="M104.854 54.2666L104.718 54.6085C111.82 51.4155 115.315 57.7756 121.221 57.7639L121.105 57.4203C115.353 57.2856 111.871 51.1222 104.854 54.2666Z" fill="#37474F"/>
<path d="M120.819 62.3478C121.354 62.2541 121.881 62.1168 122.393 61.9373C122.284 61.76 122.178 61.5715 122.081 61.3761C121.227 61.6106 120.693 61.9799 120.819 62.3478Z" fill="#37474F"/>
<path d="M103.876 58.3007L103.596 59.0488C104.113 58.8482 104.647 58.6936 105.191 58.5869C105.314 58.1796 104.761 57.9603 103.876 58.3007Z" fill="#37474F"/>
<path d="M106.669 53.9385C106.212 54.0433 105.763 54.1808 105.326 54.3498L105.046 55.098C105.86 54.7929 106.56 54.3327 106.669 53.9385Z" fill="#37474F"/>
<path d="M120.924 58.51L120.687 57.7501C120.31 57.7224 119.934 57.6736 119.562 57.6038C119.66 57.8824 119.845 58.1216 120.091 58.2851C120.337 58.4486 120.629 58.5276 120.924 58.51Z" fill="#37474F"/>
<path d="M113.309 56.1703C113.256 56.1441 113.202 56.1603 113.198 56.1926L113.185 56.3367C112.93 56.2172 112.647 56.174 112.368 56.2124C112.323 56.2215 112.298 56.2265 112.295 56.2638C112.297 56.2951 112.309 56.325 112.328 56.35C112.347 56.375 112.372 56.394 112.402 56.4049C112.428 56.4185 112.459 56.4234 112.488 56.4189C112.723 56.3833 112.963 56.4131 113.182 56.5051L113.106 57.5112C112.394 57.2819 112.073 57.3517 112.032 57.6955C111.991 58.0392 112.393 58.5298 112.992 58.8499L112.97 59.1322C112.974 59.1639 112.986 59.1942 113.005 59.2199C113.023 59.2455 113.049 59.2657 113.078 59.2783C113.142 59.3074 113.197 59.2963 113.199 59.254L113.22 58.9667C113.555 59.1393 113.934 59.2058 114.307 59.1574C114.342 59.1503 114.362 59.1462 114.365 59.1089C114.359 59.0763 114.345 59.0456 114.325 59.0188C114.305 58.992 114.28 58.9698 114.25 58.9538C114.224 58.9405 114.193 58.9356 114.164 58.9397C113.843 58.9929 113.514 58.9434 113.223 58.7983L113.299 57.766C113.991 57.9994 114.283 57.9407 114.307 57.5637C114.265 57.3138 114.161 57.0785 114.004 56.8799C113.847 56.6813 113.641 56.5259 113.408 56.4283L113.417 56.2902C113.427 56.262 113.367 56.2005 113.309 56.1703ZM113.311 57.5906L113.381 56.6067C113.56 56.6742 113.718 56.7873 113.839 56.9349C113.961 57.0825 114.042 57.2594 114.074 57.4479C114.062 57.7019 113.91 57.7797 113.311 57.5906ZM113.094 57.7128L113.016 58.7088C112.541 58.4581 112.25 58.1025 112.275 57.8354C112.3 57.5682 112.483 57.5157 113.094 57.7128Z" fill="#455A64"/>
<path d="M49.2145 94.5568C57.8472 90.5533 61.1786 100.695 69.8406 96.7061C68.8431 95.3782 68.0963 93.8795 67.6366 92.2835C61.8796 92.1237 58.387 85.9834 51.3846 89.1248L49.2145 94.5568Z" fill="#95A3AA"/>
<path d="M57.4105 91.5686C57.2551 92.6483 58.2531 93.9892 59.6115 94.6968C60.9699 95.4044 62.0622 94.9439 62.0441 93.7575C61.982 93.083 61.7542 92.4342 61.3809 91.8689C61.0076 91.3037 60.5005 90.8394 59.9046 90.5173C58.7177 89.9325 57.57 90.4828 57.4105 91.5686Z" fill="#37474F"/>
<path d="M63.5973 94.2795C63.6369 94.4485 63.723 94.603 63.8458 94.7257C63.9686 94.8483 64.1233 94.9342 64.2924 94.9735C64.6594 95.078 64.9385 94.9276 64.903 94.6726C64.8481 94.5129 64.7547 94.3691 64.631 94.254C64.5073 94.1389 64.3572 94.0561 64.1939 94.0129C63.84 93.8952 63.5739 94.0063 63.5973 94.2795Z" fill="#37474F"/>
<path d="M54.3895 90.8541C54.3313 91.086 54.6106 91.2763 55.0078 91.3223C55.405 91.3684 55.7497 91.231 55.7959 90.9911C55.8421 90.7511 55.5888 90.5084 55.2037 90.4704C55.0448 90.4386 54.8799 90.4587 54.7333 90.5278C54.5867 90.5969 54.4662 90.7113 54.3895 90.8541Z" fill="#37474F"/>
<path d="M67.1116 92.2313C67.5346 93.9091 68.1914 95.5191 69.0628 97.014C69.3158 96.916 69.5475 96.817 69.8357 96.6857C68.8383 95.3578 68.0914 93.8591 67.6318 92.2632C67.4574 92.2563 67.283 92.2493 67.1116 92.2313Z" fill="#37474F"/>
<path d="M49.2135 94.5566C49.4714 94.4314 49.7334 94.3264 49.9864 94.2284L52.0033 88.8429C51.7987 88.9207 51.5911 89.0095 51.3795 89.1045L49.2135 94.5566Z" fill="#37474F"/>
<path d="M49.3493 94.21L49.2145 94.5568C57.8472 90.5533 61.1786 100.695 69.8406 96.7061L69.6741 96.5036C61.2336 100.133 57.8984 90.2599 49.3493 94.21Z" fill="#37474F"/>
<path d="M51.3809 89.1045L51.245 89.4463C58.3472 86.2534 61.842 92.6134 67.748 92.6018L67.6329 92.2632C61.8758 92.1034 58.3833 85.9631 51.3809 89.1045Z" fill="#37474F"/>
<path d="M67.3473 97.1858C67.8813 97.095 68.4063 96.958 68.9165 96.7763C68.8125 96.598 68.7066 96.4095 68.6046 96.2151C67.755 96.4486 67.219 96.8079 67.3473 97.1858Z" fill="#37474F"/>
<path d="M50.3932 93.1404L50.1136 93.8886C50.6316 93.6904 51.1652 93.5359 51.709 93.4267C51.8367 93.0183 51.2841 92.799 50.3932 93.1404Z" fill="#37474F"/>
<path d="M53.2219 88.7715C52.7649 88.8763 52.3159 89.0138 51.8785 89.1828L51.5989 89.931C52.3879 89.631 53.0902 89.1859 53.2219 88.7715Z" fill="#37474F"/>
<path d="M67.4473 93.354L67.2148 92.5881C66.8368 92.566 66.4608 92.5171 66.0897 92.4418C66.1875 92.7198 66.3724 92.9589 66.6171 93.1233C66.8617 93.2876 67.1529 93.3686 67.4473 93.354Z" fill="#37474F"/>
<path d="M59.8361 91.0132C59.7776 90.983 59.7282 90.9981 59.7252 91.0354L59.7122 91.1796C59.457 91.0626 59.1741 91.0195 58.8956 91.0552C58.8503 91.0643 58.8251 91.0694 58.8221 91.1067C58.8246 91.1379 58.836 91.1678 58.855 91.1928C58.8739 91.2178 58.8996 91.2369 58.929 91.2477C58.9551 91.2634 58.9861 91.2684 59.0157 91.2618C59.2505 91.2261 59.4905 91.2559 59.7093 91.3479L59.6285 92.355C58.9217 92.1247 58.5951 92.1955 58.5591 92.5383C58.5231 92.8811 58.9206 93.3727 59.5196 93.6928L59.4977 93.975C59.5011 94.0068 59.5129 94.037 59.5319 94.0627C59.5508 94.0884 59.5763 94.1085 59.6056 94.1211C59.6692 94.1503 59.7246 94.1392 59.7266 94.0968L59.7475 93.8095C60.0825 93.9819 60.4613 94.0501 60.8354 94.0052C60.8706 93.9982 60.8908 93.9941 60.8928 93.9518C60.8864 93.9198 60.8728 93.8896 60.853 93.8636C60.8333 93.8376 60.8079 93.8164 60.7787 93.8017C60.7524 93.7858 60.7216 93.779 60.691 93.7826C60.3704 93.8357 60.0412 93.7862 59.7504 93.6412L59.8212 92.6099C60.5179 92.8422 60.8102 92.7835 60.8291 92.4075C60.7883 92.1581 60.6844 91.9233 60.5272 91.7255C60.37 91.5276 60.1648 91.3733 59.9311 91.2772L59.94 91.1391C59.9347 91.111 59.9224 91.0848 59.9042 91.0628C59.886 91.0408 59.8626 91.0237 59.8361 91.0132ZM59.8382 92.4335L59.907 91.4445C60.0854 91.5145 60.2429 91.629 60.3644 91.7771C60.486 91.9253 60.5675 92.1021 60.6012 92.2908C60.5832 92.5408 60.4361 92.6175 59.8382 92.4335ZM59.6206 92.5506L59.5427 93.5466C59.0677 93.2959 58.7771 92.9454 58.7961 92.648C58.815 92.3506 59.0095 92.3535 59.6206 92.5506Z" fill="#455A64"/>
<path d="M-5.54848 73.631C6.55244 72.9049 5.75954 86.4485 17.8473 85.7093C17.2906 84.0334 17.1529 81.8853 17.2871 79.4468C10.5562 76.6043 9.26607 67.6993 -0.47524 68.1665C-2.16061 69.9904 -3.85168 71.8119 -5.54848 73.631Z" fill="#95A3AA"/>
<path d="M5.53732 73.9007C4.85781 75.0856 5.40979 77.1557 6.66896 78.6224C7.92813 80.0892 9.45629 80.0497 10.0016 78.64C10.2444 77.8117 10.2775 76.936 10.0979 76.0917C9.91831 75.2474 9.53162 74.461 8.97263 73.8032C7.84672 72.5824 6.23293 72.6915 5.53732 73.9007Z" fill="#37474F"/>
<path d="M11.5959 79.9763C11.5664 80.1952 11.5977 80.418 11.6864 80.6203C11.7751 80.8226 11.9178 80.9966 12.0988 81.1231C12.4881 81.4171 12.8822 81.3695 12.9596 81.0499C12.9694 80.8354 12.9259 80.6218 12.8331 80.4282C12.7402 80.2346 12.6009 80.067 12.4275 79.9404C12.0684 79.6403 11.6975 79.6466 11.5959 79.9763Z" fill="#37474F"/>
<path d="M2.29678 71.6522C2.11553 71.8983 2.36076 72.258 2.80548 72.4885C3.25021 72.719 3.71895 72.7298 3.89213 72.4695C4.06531 72.2093 3.8664 71.7932 3.43479 71.5758C3.26127 71.4669 3.05777 71.4157 2.85338 71.4294C2.64899 71.4431 2.45418 71.5211 2.29678 71.6522Z" fill="#37474F"/>
<path d="M16.7122 79.1903C16.4334 81.3707 16.464 83.5796 16.803 85.7515C17.1531 85.7546 17.5013 85.7476 17.8473 85.7305C17.2906 84.0546 17.1539 81.9116 17.2871 79.468C17.1065 79.3785 16.9049 79.2879 16.7122 79.1903Z" fill="#37474F"/>
<path d="M-5.54717 73.6311C-5.18026 73.6046 -4.82544 73.5962 -4.50387 73.6051L0.386951 68.172C0.107388 68.1722 -0.179896 68.1775 -0.474907 68.1878C-2.15961 69.9975 -3.85037 71.8119 -5.54717 73.6311Z" fill="#37474F"/>
<path d="M-5.22891 73.289C-5.33769 73.3999 -5.44042 73.5149 -5.54819 73.6309C6.55274 72.9048 5.75984 86.4484 17.8477 85.7092L17.7456 85.3837C6.09098 85.8 6.72385 72.5821 -5.22891 73.289Z" fill="#37474F"/>
<path d="M-0.454778 68.1835L-0.774054 68.5255C9.09122 68.0491 10.2989 77.1961 17.2887 79.9185L17.3075 79.4638C10.5635 76.6082 9.30164 67.7133 -0.454778 68.1835Z" fill="#37474F"/>
<path d="M14.6871 85.1593C15.363 85.2974 16.0492 85.3788 16.7387 85.4027C16.686 85.1407 16.6375 84.8988 16.6292 84.5964C15.5142 84.4742 14.7109 84.6513 14.6871 85.1593Z" fill="#37474F"/>
<path d="M1.88116 68.6476C1.29076 68.5596 0.694769 68.5146 0.0978531 68.5129L-0.578971 69.2674C0.492579 69.2777 1.52565 69.0703 1.88116 68.6476Z" fill="#37474F"/>
<path d="M16.5892 80.667L16.6691 79.6548C16.2311 79.4533 15.8078 79.2212 15.4024 78.9603C15.3881 79.335 15.4962 79.7042 15.7103 80.0122C15.9244 80.3201 16.2329 80.5499 16.5892 80.667Z" fill="#37474F"/>
<path d="M8.67073 74.3668C8.6112 74.3054 8.54769 74.3024 8.52153 74.3548L8.44 74.5232C8.19102 74.2647 7.87444 74.0812 7.52631 73.9937C7.48095 74.0028 7.44568 74.0099 7.41544 74.016C7.40275 74.0536 7.40019 74.0939 7.408 74.1328C7.41582 74.1717 7.43373 74.2079 7.45996 74.2377C7.48319 74.2676 7.51725 74.2871 7.55476 74.2921C7.84953 74.3595 8.12019 74.5064 8.33734 74.7169L7.77877 75.8775C7.04344 75.2703 6.62707 75.2071 6.42677 75.5933C6.22647 75.9796 6.46497 76.7495 7.0209 77.4033L6.86591 77.728C6.85344 77.7665 6.85108 77.8076 6.85906 77.8473C6.86703 77.887 6.88507 77.924 6.91145 77.9548C6.97198 78.0213 7.04256 78.0333 7.06873 77.9809L7.22774 77.6501C7.5449 78.0065 7.96089 78.2606 8.42283 78.38C8.46314 78.3719 8.49339 78.3658 8.51355 78.3618C8.52564 78.3214 8.52762 78.2787 8.51933 78.2374C8.51103 78.1961 8.49272 78.1575 8.46599 78.1249C8.44269 78.0938 8.40847 78.0725 8.37018 78.0655C7.9675 77.9793 7.60226 77.7683 7.32638 77.4625L7.88996 76.2746C8.60714 76.8698 8.97714 76.9371 9.1633 76.5065C9.34945 76.0759 9.13617 75.3271 8.62666 74.7479L8.70518 74.5906C8.72071 74.5537 8.72572 74.5133 8.71963 74.4738C8.71355 74.4343 8.69662 74.3973 8.67073 74.3668ZM8.00672 76.0467L8.54512 74.8901C8.72298 75.0553 8.85528 75.2636 8.92926 75.4949C9.00324 75.7261 9.0164 75.9725 8.9675 76.2103C8.84678 76.5229 8.63108 76.5452 8.00672 76.0467ZM7.69932 76.1085L7.15083 77.2671C6.70084 76.7493 6.52199 76.1981 6.68002 75.8885C6.83804 75.5789 7.06183 75.5707 7.69528 76.0883L7.69932 76.1085Z" fill="#455A64"/>
<path d="M43.4488 88.1703C33.5175 93.2 32.9383 105.484 23.007 110.514C26.0482 111.735 29.0033 112.901 31.8724 114.013C38.7231 108.968 40.4933 99.9777 47.2382 94.8486C45.8977 92.5594 44.6269 90.3296 43.4488 88.1703Z" fill="#95A3AA"/>
<path d="M38.3809 98.5669C37.2662 97.4801 35.3463 98.1277 34.1715 100.109C32.9967 102.091 33.0135 104.29 34.2812 105.12C35.549 105.951 37.4607 105.289 38.4916 103.583C39.5225 101.876 39.4835 99.6456 38.3809 98.5669Z" fill="#37474F"/>
<path d="M32.9763 107.291C32.6687 107.117 32.1377 107.344 31.7711 107.79C31.4045 108.235 31.3474 108.708 31.6711 108.858C31.9009 108.915 32.1425 108.899 32.3634 108.815C32.5844 108.73 32.7743 108.58 32.9076 108.384C33.249 107.97 33.2688 107.468 32.9763 107.291Z" fill="#37474F"/>
<path d="M41.2704 95.0194C41.0474 94.7444 40.5485 94.8708 40.186 95.3106C39.8234 95.7504 39.7332 96.3452 39.9702 96.6121C40.2073 96.8791 40.675 96.7275 41.0234 96.2958C41.3718 95.8641 41.4934 95.2944 41.2704 95.0194Z" fill="#37474F"/>
<path d="M32.4821 113.545C29.6661 112.419 26.799 111.247 23.8808 110.029C23.5997 110.196 23.3065 110.355 23.0062 110.504C26.0474 111.725 29.0009 112.891 31.8666 114.004C32.0771 113.852 32.2786 113.706 32.4821 113.545Z" fill="#37474F"/>
<path d="M43.4485 88.1701C43.1475 88.3249 42.8543 88.4834 42.5688 88.6456C43.8575 90.8334 45.2133 93.0601 46.6364 95.3258C46.8338 95.1603 47.0323 94.9998 47.2378 94.8485C45.8974 92.5593 44.6265 90.3295 43.4485 88.1701Z" fill="#37474F"/>
<path d="M43.6726 88.5813L43.4485 88.1702C33.5171 93.2 32.938 105.484 23.0067 110.514L23.5774 110.745C33.2899 105.697 33.9721 93.6381 43.6726 88.5813Z" fill="#37474F"/>
<path d="M47.2527 94.8454L46.9983 94.4142C40.0842 99.5616 38.3403 108.735 31.3384 113.811L31.9051 114.022C38.7296 108.977 40.4928 99.9776 47.2527 94.8454Z" fill="#37474F"/>
<path d="M26.1709 109.087C25.6156 109.513 25.0367 109.908 24.437 110.269L25.649 110.77C26.6173 110.161 26.792 109.361 26.1709 109.087Z" fill="#37474F"/>
<path d="M43.3597 89.9706L42.8096 89.0326C42.2086 89.3916 41.6296 89.7862 41.0757 90.2143C41.4289 90.7463 42.3975 90.5833 43.3597 89.9706Z" fill="#37474F"/>
<path d="M45.1017 96.0326C45.5056 95.6422 45.9277 95.2638 46.374 94.9016L45.7886 93.9706C45.0088 94.5519 44.7404 95.5127 45.1017 96.0326Z" fill="#37474F"/>
<path d="M30.7693 112.856L31.949 113.353C32.4024 113 32.8305 112.652 33.2354 112.24C32.6163 111.95 31.5581 112.268 30.7693 112.856Z" fill="#37474F"/>
<path d="M37.9846 103.124C38.0359 103.04 38.0359 102.935 37.9864 102.898L37.8412 102.775C38.0702 102.358 38.217 101.902 38.2736 101.43C38.2836 101.349 38.2836 101.297 38.2412 101.269C38.1988 101.24 38.1041 101.265 38.0487 101.354C38.0218 101.395 38.0058 101.441 38.0025 101.49C37.9595 101.896 37.8416 102.291 37.6546 102.655L36.6207 101.814C37.1108 100.704 37.1738 100.13 36.8177 99.7929C36.4616 99.4555 35.7754 99.8239 35.2438 100.675L34.9554 100.439C34.9059 100.402 34.8243 100.466 34.7649 100.535C34.7055 100.605 34.7056 100.736 34.755 100.773L35.0485 101.008C34.731 101.569 34.5344 102.191 34.4714 102.833C34.4641 102.856 34.4628 102.881 34.4675 102.904C34.4723 102.928 34.483 102.95 34.4987 102.969C34.5521 103 34.6448 102.94 34.7032 102.865C34.7309 102.823 34.7466 102.775 34.7485 102.725C34.789 102.166 34.9498 101.622 35.22 101.131L36.2791 101.967C35.8011 103.059 35.7613 103.643 36.1435 103.902C36.5258 104.161 37.1807 103.846 37.6499 103.075L37.7881 103.189C37.8536 103.255 37.9221 103.204 37.9846 103.124ZM36.4839 102.125L37.5077 102.968C37.1049 103.573 36.6313 103.825 36.3741 103.615C36.1169 103.404 36.0844 103.086 36.4839 102.125ZM36.4311 101.653L35.4073 100.81C35.8311 100.127 36.3138 99.8679 36.5922 100.106C36.8706 100.343 36.8527 100.698 36.4311 101.653Z" fill="#455A64"/>
<path d="M87.7487 69.8119C84.3021 80.1137 100.579 92.9243 96.1241 103.114C99.7009 101.667 103.102 99.8196 106.264 97.6073C104.236 88.5778 94.1323 78.5486 97.773 70.284C94.4174 70.1259 91.076 69.9686 87.7487 69.8119Z" fill="#95A3AA"/>
<path d="M93.8456 80.7503C92.2491 81.1023 92.0151 83.4875 93.4364 86.075C94.8577 88.6626 96.9718 90.2093 98.321 89.5137C99.6702 88.8181 99.7318 86.4098 98.5698 84.1477C97.4078 81.8856 95.4198 80.3922 93.8456 80.7503Z" fill="#37474F"/>
<path d="M99.8857 92.3451C99.5713 92.5288 99.5345 93.2073 99.8002 93.8512C100.066 94.4951 100.483 94.8516 100.815 94.6488C101.146 94.4459 101.217 93.7815 100.949 93.1487C100.68 92.5159 100.189 92.1584 99.8857 92.3451Z" fill="#37474F"/>
<path d="M92.4064 75.5922C91.9992 75.6268 91.7607 76.1622 91.9245 76.7952C92.0882 77.4281 92.5674 77.9086 92.9555 77.8568C93.3435 77.8051 93.4953 77.2556 93.3558 76.6388C93.2162 76.022 92.8096 75.5637 92.4064 75.5922Z" fill="#37474F"/>
<path d="M106.057 96.7887C103.061 98.9212 99.8484 100.73 96.4714 102.184C96.361 102.494 96.2347 102.797 96.0931 103.094C99.6707 101.648 103.072 99.8008 106.233 97.587C106.203 97.336 106.132 97.0619 106.057 96.7887Z" fill="#37474F"/>
<path d="M87.7474 69.8118C87.6415 70.1209 87.5542 70.436 87.486 70.7555C90.7965 70.8457 94.1271 70.9406 97.4779 71.0401C97.5631 70.7833 97.6611 70.5309 97.7717 70.2839C94.4161 70.1259 91.0747 69.9685 87.7474 69.8118Z" fill="#37474F"/>
<path d="M88.3674 69.8395C88.1607 69.8286 87.9501 69.8237 87.7434 69.8128C84.2969 80.1146 100.573 92.9252 96.1188 103.115C96.3808 103.01 96.6418 102.9 96.8968 102.786C100.772 92.6599 84.9066 80.0183 88.3674 69.8395Z" fill="#37474F"/>
<path d="M97.7722 70.2837L97.1371 70.254C93.5036 78.6588 103.968 88.8672 105.743 97.9684C105.918 97.8493 106.094 97.7302 106.263 97.6071C104.24 88.6028 94.1346 78.5636 97.7722 70.2837Z" fill="#37474F"/>
<path d="M97.5219 99.7612C97.4976 100.469 97.3943 101.172 97.2141 101.857C97.7431 101.62 98.255 101.375 98.7518 101.134C98.9031 100.008 98.2484 99.3846 97.5219 99.7612Z" fill="#37474F"/>
<path d="M89.495 70.8082L88.1089 70.772C87.9562 71.4623 87.878 72.167 87.8756 72.874C88.6236 72.8653 89.2206 71.9223 89.495 70.8082Z" fill="#37474F"/>
<path d="M96.4555 72.7555C96.5325 72.1664 96.6633 71.5856 96.8462 71.0203C96.3825 71.0086 95.9178 70.9918 95.4541 70.9801C95.1525 71.9581 95.7025 72.7651 96.4555 72.7555Z" fill="#37474F"/>
<path d="M104.416 97.915C104.81 97.6577 105.188 97.3983 105.565 97.1601C105.41 96.548 105.223 95.9302 105.004 95.3068C104.437 95.6933 104.234 96.8769 104.416 97.915Z" fill="#37474F"/>
<path d="M97.9189 84.3781C97.8603 84.2692 97.7665 84.1937 97.7081 84.2159C97.6496 84.2382 97.5871 84.2402 97.5267 84.2786C97.2412 83.761 96.8796 83.2893 96.454 82.8792C96.3834 82.8148 96.334 82.7775 96.2897 82.7917C96.2453 82.8058 96.2232 82.9308 96.2788 83.0507C96.306 83.1064 96.3445 83.1558 96.3918 83.1958C96.7612 83.5386 97.0775 83.9345 97.3302 84.3705L96.0846 84.825C95.2389 83.5374 94.7062 83.052 94.2467 83.1914C93.7871 83.3309 93.8272 84.2613 94.4258 85.415C94.3049 85.4393 94.191 85.4989 94.0792 85.5423C93.9673 85.5857 94.0289 85.6835 94.0904 85.8074C94.152 85.9313 94.2569 86.0099 94.3154 85.9877L94.6661 85.8543C95.063 86.5633 95.5756 87.2011 96.1826 87.7412C96.2452 87.7916 96.2865 87.8147 96.3258 87.8016C96.3651 87.7884 96.3771 87.6392 96.3125 87.5264C96.2853 87.469 96.2465 87.4179 96.1985 87.3763C95.6585 86.9201 95.2027 86.3729 94.8515 85.7594C95.2707 85.6019 95.6899 85.4443 96.1081 85.2817C96.9549 86.5481 97.4995 86.9892 97.9127 86.8014C98.3258 86.6136 98.2717 85.7175 97.7488 84.6796C97.8042 84.6685 97.8647 84.6563 97.9201 84.6452C97.9755 84.6341 97.9734 84.4667 97.9189 84.3781ZM96.3369 85.22L97.5442 84.7574C97.9621 85.5857 98.009 86.2368 97.6956 86.3731C97.3822 86.5095 97.0635 86.2537 96.3288 85.1797L96.3369 85.22ZM95.8599 84.9331C95.4538 85.0775 95.0446 85.2331 94.6395 85.3826C94.161 84.4616 94.1191 83.7832 94.4648 83.6771C94.8105 83.571 95.1201 83.7815 95.8518 84.8928L95.8599 84.9331Z" fill="#455A64"/>
<path d="M25.1515 84.1744C25.1515 84.1744 23.3243 63.8225 1.51492 60.6107C1.5129 60.6006 5.12416 80.6991 25.1515 84.1744Z" fill="#37474F"/>
<path d="M52.41 57.8666C52.41 57.8666 61.7687 39.6985 45.0785 25.2986C45.0715 25.2633 37.3595 44.1911 52.41 57.8666Z" fill="#37474F"/>
<path d="M111.912 88.8711C111.912 88.8711 108.197 72.6416 90.2387 72.4468C90.2387 72.4468 95.3667 88.272 111.912 88.8711Z" fill="#37474F"/>
<path d="M25.2346 84.3991C25.2346 84.3991 38.9158 74.2073 31.6882 57.3515C31.6882 57.3515 19.0038 68.6695 25.2346 84.3991Z" fill="#95A3AA"/>
<path d="M105.454 56.7148C105.454 56.7148 121.011 49.8108 117.689 31.7513C117.689 31.7513 102.82 39.9955 105.454 56.7148Z" fill="#95A3AA"/>
<path d="M97.144 63.3903C97.144 63.3903 104.333 54.4182 96.7312 44.5998C96.7333 44.6099 90.3709 54.176 97.144 63.3903Z" fill="#37474F"/>
<path d="M61.1172 101.535C61.1172 101.535 57.8789 90.4997 45.4825 91.1121C45.4573 91.1171 49.7004 101.804 61.1172 101.535Z" fill="#37474F"/>
<path d="M45.7362 120.519C45.7362 120.519 56.717 106.566 44.8518 91.5218C44.8518 91.5218 35.1529 106.377 45.7362 120.519Z" fill="#37474F"/>
<path d="M84.6673 46.8491C84.6673 46.8491 68.8117 38.8506 56.4232 53.4696C56.4232 53.4696 72.9097 60.0414 84.6673 46.8491Z" fill="#37474F"/>
<path d="M44.4364 63.1903C40.0189 70.5586 34.0202 76.854 26.8735 81.6218C25.7854 82.3121 25.1395 82.6463 25.1395 82.6463L25.0346 82.6202C25.0165 82.6252 24.9979 82.6289 24.9792 82.6313C0.782361 77.5292 -13.8405 78.4105 -23.6522 80.4594L-21.9805 88.7845C-13.3712 85.6559 10.3071 85.0952 20.1181 87.3507C27.6777 89.0988 36.2968 92.2069 44.7045 91.7559L45.016 91.7405C45.2599 91.7282 45.5028 91.7109 45.7458 91.6936C46.9802 91.6099 48.2163 91.491 49.454 91.3369C58.0258 90.3295 66.2583 87.3948 73.5344 82.7529C81.1605 77.861 85.685 74.5461 90.2963 72.6031C90.4172 72.5526 90.5381 72.5021 90.655 72.4576C97.7322 69.5843 105.207 69.9182 124.515 72.7358C127.334 73.1449 127.267 72.2357 125.309 71.2604C123.352 70.2852 101.846 66.3886 96.2047 66.5462C96.2047 66.5462 102.512 60.7764 105.517 56.6865C106.521 55.3157 107.153 54.1298 107.062 53.4142C106.723 50.8611 106.446 51.4409 105.148 53.2009C104.987 53.4168 104.814 53.6558 104.618 53.905C102.843 56.1807 100.925 58.3414 98.8763 60.374C98.1279 61.1114 97.3583 61.8479 96.5746 62.5662C83.6961 74.4317 66.3006 82.4702 56.5732 85.2781C39.0947 90.2925 29.9925 84.3612 29.9925 84.3612C29.9925 84.3612 41.4139 73.0714 45.7342 66.3374C50.0544 59.6034 57.5641 54.1844 65.5006 55.7205C67.6057 56.1262 68.2072 55.7013 67.7591 55.0626C66.8932 53.8052 61.9835 51.7032 56.49 53.4302C55.5129 53.7379 54.5706 54.1467 53.6785 54.6501C52.7336 55.1835 51.8443 55.8099 51.0238 56.52C50.5633 56.9197 50.1232 57.3423 49.7052 57.7862C49.7052 57.7862 49.6972 56.5715 49.5245 54.8237C49.1303 50.8241 47.8821 44.0339 43.9346 42.6509L43.6986 42.5725C38.6007 40.9172 52.0592 50.2936 44.4364 63.1903Z" fill="#8B75FF"/>
<g opacity="0.4">
<path opacity="0.4" d="M44.4364 63.1903C40.0189 70.5586 34.0202 76.854 26.8735 81.6218C25.7854 82.3121 25.1395 82.6463 25.1395 82.6463L25.0346 82.6202C25.0165 82.6252 24.9979 82.6289 24.9792 82.6313C0.782361 77.5292 -13.8405 78.4105 -23.6522 80.4594L-21.9805 88.7845C-13.3712 85.6559 10.3071 85.0952 20.1181 87.3507C27.6777 89.0988 36.2968 92.2069 44.7045 91.7559L45.016 91.7405C45.2599 91.7282 45.5028 91.7109 45.7458 91.6936C46.9802 91.6099 48.2163 91.491 49.454 91.3369C58.0258 90.3295 66.2583 87.3948 73.5344 82.7529C81.1605 77.861 85.685 74.5461 90.2963 72.6031C90.4172 72.5526 90.5381 72.5021 90.655 72.4576C97.7322 69.5843 105.207 69.9182 124.515 72.7358C127.334 73.1449 127.267 72.2357 125.309 71.2604C123.352 70.2852 101.846 66.3886 96.2047 66.5462C96.2047 66.5462 102.512 60.7764 105.517 56.6865C106.521 55.3157 107.153 54.1298 107.062 53.4142C106.723 50.8611 106.446 51.4409 105.148 53.2009C104.987 53.4168 104.814 53.6558 104.618 53.905C102.843 56.1807 100.925 58.3414 98.8763 60.374C98.1279 61.1114 97.3583 61.8479 96.5746 62.5662C83.6961 74.4317 66.3006 82.4702 56.5732 85.2781C39.0947 90.2925 29.9925 84.3612 29.9925 84.3612C29.9925 84.3612 41.4139 73.0714 45.7342 66.3374C50.0544 59.6034 57.5641 54.1844 65.5006 55.7205C67.6057 56.1262 68.2072 55.7013 67.7591 55.0626C66.8932 53.8052 61.9835 51.7032 56.49 53.4302C55.5129 53.7379 54.5706 54.1467 53.6785 54.6501C52.7336 55.1835 51.8443 55.8099 51.0238 56.52C50.5633 56.9197 50.1232 57.3423 49.7052 57.7862C49.7052 57.7862 49.6972 56.5715 49.5245 54.8237C49.1303 50.8241 47.8821 44.0339 43.9346 42.6509L43.6986 42.5725C38.6007 40.9172 52.0592 50.2936 44.4364 63.1903Z" fill="black"/>
</g>
</svg>
